PathFileType	4	(X/Y/Z)	/Users/itak/Documents/Research/Walk-IL/dataset/trc/00255_00009.trc
DataRate	CameraRate	NumFrames	NumMarkers	Units	OrigDataRate	OrigDataStartFrame	OrigNumFrames
100.000000	100.000000	4	53	mm	100.000000	204	546
Frame#	Time	RPSI			LPSI			L3			STRN			T10			C7			CLAV			RBAK			LBAK			LSHO			LUPA			LAEL			LAOL			LWTS			LWPS			LFRA			LIFD			LHPS			LHTS			RSHO			RUPA			RAEL			RAOL			RWTS			RWPS			RFRA			RIFD			RHTS			RHPS			RBHD			LFHD			RFHD			LBHD			LHIP			RHIP			RASI			LASI			LKNE			LTHI			LANK			LTIP			LTOE			LMT1			LMT5			LHEE			RKNE			RTHI			RANK			RTIP			RTOE			RMT1			RMT5			RHEE			
		X1	Y1	Z1	X2	Y2	Z2	X3	Y3	Z3	X4	Y4	Z4	X5	Y5	Z5	X6	Y6	Z6	X7	Y7	Z7	X8	Y8	Z8	X9	Y9	Z9	X10	Y10	Z10	X11	Y11	Z11	X12	Y12	Z12	X13	Y13	Z13	X14	Y14	Z14	X15	Y15	Z15	X16	Y16	Z16	X17	Y17	Z17	X18	Y18	Z18	X19	Y19	Z19	X20	Y20	Z20	X21	Y21	Z21	X22	Y22	Z22	X23	Y23	Z23	X24	Y24	Z24	X25	Y25	Z25	X26	Y26	Z26	X27	Y27	Z27	X28	Y28	Z28	X29	Y29	Z29	X30	Y30	Z30	X31	Y31	Z31	X32	Y32	Z32	X33	Y33	Z33	X34	Y34	Z34	X35	Y35	Z35	X36	Y36	Z36	X37	Y37	Z37	X38	Y38	Z38	X39	Y39	Z39	X40	Y40	Z40	X41	Y41	Z41	X42	Y42	Z42	X43	Y43	Z43	X44	Y44	Z44	X45	Y45	Z45	X46	Y46	Z46	X47	Y47	Z47	X48	Y48	Z48	X49	Y49	Z49	X50	Y50	Z50	X51	Y51	Z51	X52	Y52	Z52	X53	Y53	Z53	

205	2.04	-1277.216430664062	1026.57763671875	-318.7286376953125	-1267.03173828125	1036.221069335938	-438.3114624023438	-1267.114013671875	1119.4990234375	-389.9071655273438	-1004.705810546875	1280.759155273438	-374.72900390625	-1265.321655273438	1245.137451171875	-379.73681640625	-1175.489501953125	1499.148803710938	-379.8059387207031	-1017.032958984375	1401.576416015625	-374.456298828125	-1265.504028320312	1368.28125	-306.2173156738281	-1196.65673828125	1464.543579101562	-491.20703125	-1106.668212890625	1455.239990234375	-546.2169799804688	-1152.420654296875	1340.884155273438	-623.6629028320312	-1176.971801757812	1131.7451171875	-651.5361938476562	-1249.430419921875	1128.805419921875	-602.2824096679688	-1138.63818359375	881.95556640625	-599.4761352539062	-1166.89892578125	873.80029296875	-679.6099853515625	-1177.126708984375	1022.990905761719	-667.358154296875	-1186.172119140625	692.277099609375	-611.718017578125	-1173.210327148438	783.7233276367188	-677.542724609375	-1131.6796875	775.021240234375	-622.6997680664062	-1125.755126953125	1457.978881835938	-207.1421203613281	-1150.650024414062	1396.682250976562	-139.2846527099609	-1193.523315429688	1116.924072265625	-96.8822021484375	-1229.526245117188	1113.207397460938	-185.1595611572266	-1074.83154296875	892.6333618164062	-145.0241394042969	-1127.129028320312	881.6038208007812	-77.84955596923828	-1171.978881835938	1046.228881835938	-84.69281768798828	-1073.969482421875	697.5556640625	-150.4745635986328	-1045.371826171875	769.2256469726562	-131.5193786621094	-1095.729858398438	772.0037231445312	-79.94517517089844	-1123.10546875	1649.41357421875	-336.0018920898438	-905.0110473632812	1668.529052734375	-397.8251037597656	-921.1290893554688	1666.045166015625	-299.3194274902344	-1057.13623046875	1652.741088867188	-459.7781066894531	-1149.20751953125	980.0405883789062	-566.8428955078125	-1195.979370117188	975.4598999023438	-201.6685333251953	-1091.845947265625	1016.191223144531	-227.2229614257812	-1055.494750976562	1012.435668945312	-504.5796813964844	-974.66748046875	522.8494262695312	-523.4082641601562	-1025.009643554688	655.6366577148438	-558.3822631835938	-970.2650756835938	35.17914962768555	-543.2384033203125	-974.840087890625	291.1930236816406	-542.2025756835938	-775.328857421875	56.70571517944336	-441.9444885253906	-850.5928955078125	47.3858642578125	-414.5376281738281	-842.8800048828125	37.48909759521484	-529.6517944335938	-1042.1298828125	40.17295837402344	-505.7425842285156	-1254.880615234375	495.9495849609375	-248.2331695556641	-1172.113891601562	749.5733032226562	-198.3619995117188	-1490.516357421875	60.98500823974609	-282.6903076171875	-1286.977172851562	379.3218078613281	-270.2070617675781	-1285.162719726562	44.87212753295898	-329.8836669921875	-1339.692504882812	45.08017730712891	-371.9490051269531	-1383.705688476562	40.19967651367188	-259.1906127929688	-1555.171997070312	76.57221221923828	-336.2472839355469	
206	2.05	-1269.306274414062	1026.012939453125	-320.5653381347656	-1259.049560546875	1035.939208984375	-440.0897827148438	-1259.487548828125	1119.123046875	-391.7336120605469	-997.513427734375	1281.083374023438	-375.3299255371094	-1258.00244140625	1244.870971679688	-381.7285461425781	-1168.807006835938	1499.081420898438	-381.1675720214844	-1010.163940429688	1401.861938476562	-374.9985961914062	-1258.885375976562	1367.894287109375	-308.2666931152344	-1189.272216796875	1464.501220703125	-492.7597045898438	-1098.931884765625	1455.38037109375	-547.2278442382812	-1143.627319335938	1340.895141601562	-625.0036010742188	-1166.805053710938	1131.552490234375	-653.054931640625	-1239.817993164062	1128.293579101562	-604.4893798828125	-1127.968383789062	881.89111328125	-600.7423706054688	-1155.39892578125	873.7115478515625	-681.1358642578125	-1166.44873046875	1022.824279785156	-668.9022827148438	-1175.0927734375	692.1778564453125	-613.1358642578125	-1161.48876953125	783.6331176757812	-679.2293701171875	-1120.646362304688	774.8917846679688	-623.9539794921875	-1120.0712890625	1457.92333984375	-208.166748046875	-1145.273315429688	1396.5068359375	-140.6108245849609	-1188.754150390625	1116.919555664062	-98.45680236816406	-1223.721801757812	1113.04150390625	-187.1360931396484	-1069.313354492188	892.5388793945312	-144.9257965087891	-1122.529907226562	881.6893310546875	-78.20941925048828	-1167.337524414062	1046.263671875	-85.87412261962891	-1068.40185546875	697.5052490234375	-149.6807556152344	-1040.083251953125	769.2678833007812	-130.5725708007812	-1091.024291992188	772.140380859375	-79.62039184570312	-1116.796875	1649.469482421875	-336.9713134765625	-898.4823608398438	1668.924682617188	-397.4954223632812	-915.109619140625	1666.327880859375	-299.1003112792969	-1050.207885742188	1652.997680664062	-460.358154296875	-1140.406372070312	980.4205932617188	-568.5011596679688	-1188.231811523438	974.9736938476562	-203.5142059326172	-1084.08251953125	1016.108825683594	-228.7028045654297	-1047.248168945312	1013.110290527344	-505.8734741210938	-966.51318359375	523.0455932617188	-523.246337890625	-1016.617248535156	655.8074951171875	-557.7633666992188	-970.0258178710938	35.10177993774414	-543.3001708984375	-969.7838134765625	290.90771484375	-542.0488891601562	-774.254150390625	53.28316116333008	-441.9739379882812	-849.9129638671875	45.5757942199707	-414.5155334472656	-842.3283081054688	36.00997543334961	-530.214111328125	-1041.67578125	40.85879135131836	-505.6460571289062	-1247.57177734375	495.9588928222656	-248.7732391357422	-1163.884155273438	749.413818359375	-200.0339813232422	-1489.332641601562	63.90892028808594	-282.2677917480469	-1280.695922851562	379.441162109375	-270.7592468261719	-1284.828979492188	44.79351043701172	-329.8230590820312	-1339.109985351562	45.67101669311523	-371.8395690917969	-1382.94921875	40.5694580078125	-259.1669921875	-1553.931030273438	81.05353546142578	-335.6519165039062	
207	2.06	-1261.344116210938	1025.542846679688	-322.3729858398438	-1250.98974609375	1035.723266601562	-441.8419799804688	-1251.866943359375	1118.918090820312	-393.5181579589844	-990.30126953125	1281.538330078125	-375.9813537597656	-1250.642822265625	1244.771484375	-383.6801452636719	-1162.0810546875	1499.160766601562	-382.5102233886719	-1003.2763671875	1402.284423828125	-375.5865173339844	-1252.194580078125	1367.674560546875	-310.2622985839844	-1181.886474609375	1464.62255859375	-494.2884216308594	-1091.20654296875	1455.697387695312	-548.2327270507812	-1134.80029296875	1341.090576171875	-626.3426513671875	-1156.438598632812	1131.531372070312	-654.5742797851562	-1230.005004882812	1127.893920898438	-606.7306518554688	-1116.89501953125	882.0247802734375	-601.97314453125	-1143.457397460938	873.8115234375	-682.639892578125	-1155.463500976562	1022.830505371094	-670.4375610351562	-1163.331298828125	692.2429809570312	-614.6262817382812	-1149.213256835938	783.7217407226562	-680.8975219726562	-1109.076416015625	775.0101928710938	-625.1698608398438	-1114.25	1457.985473632812	-209.2578277587891	-1139.740356445312	1396.471069335938	-141.9416809082031	-1183.948486328125	1117.068481445312	-100.0873489379883	-1217.857177734375	1113.05224609375	-189.1608734130859	-1063.815795898438	892.5745849609375	-144.8480224609375	-1117.974609375	881.911376953125	-78.64095306396484	-1162.708984375	1046.450073242188	-87.12503814697266	-1062.918579101562	697.590576171875	-148.9352874755859	-1034.857421875	769.4382934570312	-129.6658477783203	-1086.410522460938	772.4094848632812	-79.36091613769531	-1110.410278320312	1649.66162109375	-337.9410705566406	-891.865966796875	1669.418090820312	-397.1793212890625	-909.0073852539062	1666.694213867188	-298.8942260742188	-1043.211181640625	1653.395263671875	-460.9308166503906	-1131.564575195312	980.9253540039062	-570.1500244140625	-1180.413208007812	974.6424560546875	-205.3163452148438	-1076.271240234375	1016.209289550781	-230.1888732910156	-1038.912109375	1013.953125	-507.1927185058594	-958.5029907226562	523.242919921875	-523.1502685546875	-1008.26318359375	656.1307373046875	-557.0366821289062	-969.8057250976562	35.0880241394043	-543.3689575195312	-964.8636474609375	290.6902160644531	-541.9984741210938	-773.3779296875	50.60993957519531	-441.9555969238281	-849.38427734375	44.29239273071289	-414.4590759277344	-841.8516235351562	35.03959655761719	-530.7398071289062	-1041.2509765625	41.44001007080078	-505.6134643554688	-1239.723999023438	496.0140380859375	-249.3056030273438	-1155.442504882812	749.3683471679688	-201.7548828125	-1487.979736328125	67.11160278320312	-281.8463439941406	-1273.939208984375	379.5965576171875	-271.2074279785156	-1284.429077148438	44.71343994140625	-329.7463989257812	-1338.433471679688	46.34759140014648	-371.7371520996094	-1382.050903320312	41.07057571411133	-259.1420593261719	-1552.384765625	85.93501281738281	-335.0747985839844	
208	2.07	-1253.36083984375	1025.178833007812	-324.1764831542969	-1242.845825195312	1035.571899414062	-443.5951843261719	-1244.238159179688	1118.88427734375	-395.2803955078125	-983.08056640625	1282.124877929688	-376.6692810058594	-1243.250732421875	1244.828247070312	-385.5877075195312	-1155.323852539062	1499.386474609375	-383.8295593261719	-996.3798217773438	1402.845703125	-376.2119445800781	-1245.450317382812	1367.623779296875	-312.1940002441406	-1174.516479492188	1464.899536132812	-495.7877502441406	-1083.507568359375	1456.190795898438	-549.2247924804688	-1125.966552734375	1341.469116210938	-627.6779174804688	-1145.916625976562	1131.689086914062	-656.095703125	-1220.012084960938	1127.610229492188	-608.9989624023438	-1105.460205078125	882.3619995117188	-603.1513061523438	-1131.092163085938	874.1098022460938	-684.1116333007812	-1144.19091796875	1023.018798828125	-671.9576416015625	-1150.877563476562	692.4633178710938	-616.1934814453125	-1136.400024414062	784	-682.534423828125	-1096.965576171875	775.397705078125	-626.3342895507812	-1108.3046875	1458.175170898438	-210.4008331298828	-1134.054931640625	1396.583618164062	-143.2664337158203	-1179.09326171875	1117.376220703125	-101.748908996582	-1211.938598632812	1113.247436523438	-191.1943664550781	-1058.352416992188	892.7472534179688	-144.8041839599609	-1113.449829101562	882.2698364257812	-79.14814758300781	-1158.082275390625	1046.790649414062	-88.43181610107422	-1057.534301757812	697.818115234375	-148.2825164794922	-1029.700805664062	769.7313842773438	-128.8332977294922	-1081.890869140625	772.8059692382812	-79.19718933105469	-1103.954345703125	1649.99658203125	-338.9048461914062	-885.1648559570312	1669.999267578125	-396.8749694824219	-902.8272094726562	1667.138305664062	-298.7024841308594	-1036.150390625	1653.934814453125	-461.4931640625	-1122.662109375	981.518798828125	-571.7797241210938	-1172.583129882812	974.4874267578125	-207.0775451660156	-1068.45458984375	1016.498596191406	-231.6611328125	-1030.46826171875	1014.920715332031	-508.5167236328125	-950.7742919921875	523.3604125976562	-523.138916015625	-1000.006469726562	656.5211181640625	-556.3966674804688	-969.5996704101562	35.10517120361328	-543.4386596679688	-960.1729736328125	290.4876708984375	-542.0256958007812	-772.7095947265625	48.61195373535156	-441.8434143066406	-849.0104370117188	43.4093017578125	-414.3299865722656	-841.4456787109375	34.47356414794922	-531.159423828125	-1040.862060546875	41.89937210083008	-505.6396789550781	-1231.2451171875	496.1011962890625	-249.8355407714844	-1146.832885742188	749.4454956054688	-203.4962615966797	-1486.43798828125	70.61878967285156	-281.4170227050781	-1266.66455078125	379.7756652832031	-271.5127868652344	-1283.972045898438	44.63501358032227	-329.6543579101562	-1337.667724609375	47.10330200195312	-371.6591491699219	-1381.029296875	41.71311950683594	-259.1213684082031	-1550.487182617188	91.23888397216797	-334.5316162109375	
